RBDS018runT45_grf
version=1
nRows=37
nColumns=19
inDegrees=no
endheader
time	ground_force_r_vx	ground_force_r_vy	ground_force_r_vz	ground_force_r_px	ground_force_r_py	ground_force_r_pz	ground_force_r_mx	ground_force_r_my	ground_force_r_mz	ground_force_l_vx	ground_force_l_vy	ground_force_l_vz	ground_force_l_px	ground_force_l_py	ground_force_l_pz	ground_force_l_mx	ground_force_l_my	ground_force_l_mz
     22.49800000	   -143.80325871	   2110.14567293	     -0.97291104	      2.11168837	      0.00000000	      1.01196740	      0.00000000	      7.28275923	     -0.00000000	      0.00000000	      0.00000000	      0.00000000	      0.00000000	      0.00000000	      0.00000000	      0.00000000	      0.00000000	      0.00000000
     22.49900000	   -135.60323131	   2105.85380040	     -2.46618456	      2.10777501	      0.00000000	      1.01210758	      0.00000000	      7.03732439	     -0.00000000	      0.00000000	      0.00000000	      0.00000000	      0.00000000	      0.00000000	      0.00000000	      0.00000000	      0.00000000	      0.00000000
     22.50000000	   -127.40320390	   2101.56192788	     -3.95945808	      2.10386164	      0.00000000	      1.01224777	      0.00000000	      6.79188956	     -0.00000000	      0.00000000	      0.00000000	      0.00000000	      0.00000000	      0.00000000	      0.00000000	      0.00000000	      0.00000000	      0.00000000
     22.50100000	   -118.80360723	   2095.69746230	     -5.46023157	      2.09991303	      0.00000000	      1.01240602	      0.00000000	      6.52245715	     -0.00000000	      0.00000000	      0.00000000	      0.00000000	      0.00000000	      0.00000000	      0.00000000	      0.00000000	      0.00000000	      0.00000000
     22.50200000	   -110.20401055	   2089.83299672	     -6.96100507	      2.09596443	      0.00000000	      1.01256427	     -0.00000000	      6.25302473	     -0.00000000	      0.00000000	      0.00000000	      0.00000000	      0.00000000	      0.00000000	      0.00000000	      0.00000000	      0.00000000	      0.00000000
     22.50300000	   -101.60441388	   2083.96853113	     -8.46177856	      2.09201582	      0.00000000	      1.01272253	     -0.00000000	      5.98359232	     -0.00000000	      0.00000000	      0.00000000	      0.00000000	      0.00000000	      0.00000000	      0.00000000	      0.00000000	      0.00000000	      0.00000000
     22.50400000	    -92.79697887	   2077.10467395	     -9.91891522	      2.08804145	      0.00000000	      1.01288681	     -0.00000000	      5.70385625	     -0.00000000	      0.00000000	      0.00000000	      0.00000000	      0.00000000	      0.00000000	      0.00000000	      0.00000000	      0.00000000	      0.00000000
     22.50500000	    -83.88562470	   2069.74112095	    -11.35423348	      2.08405420	      0.00000000	      1.01305410	     -0.00000000	      5.41896835	     -0.00000000	      0.00000000	      0.00000000	      0.00000000	      0.00000000	      0.00000000	      0.00000000	      0.00000000	      0.00000000	      0.00000000
     22.50600000	    -74.97427052	   2062.37756796	    -12.78955173	      2.08006695	      0.00000000	      1.01322140	     -0.00000000	      5.13408044	     -0.00000000	      0.00000000	      0.00000000	      0.00000000	      0.00000000	      0.00000000	      0.00000000	      0.00000000	      0.00000000	      0.00000000
     22.50700000	    -65.98931323	   2054.53232697	    -14.17994045	      2.07606594	      0.00000000	      1.01338883	     -0.00000000	      4.84676767	     -0.00000000	      0.00000000	      0.00000000	      0.00000000	      0.00000000	      0.00000000	      0.00000000	      0.00000000	      0.00000000	      0.00000000
     22.50800000	    -56.85714969	   2045.72370999	    -15.48047010	      2.07203744	      0.00000000	      1.01355654	     -0.00000000	      4.55460516	     -0.00000000	      0.00000000	      0.00000000	      0.00000000	      0.00000000	      0.00000000	      0.00000000	      0.00000000	      0.00000000	      0.00000000
     22.50900000	    -47.72498615	   2036.91509302	    -16.78099976	      2.06800893	      0.00000000	      1.01372424	     -0.00000000	      4.26244264	     -0.00000000	      0.00000000	      0.00000000	      0.00000000	      0.00000000	      0.00000000	      0.00000000	      0.00000000	      0.00000000	      0.00000000
     22.51000000	    -38.59282260	   2028.10647604	    -18.08152941	      2.06398042	      0.00000000	      1.01389195	     -0.00000000	      3.97028013	     -0.00000000	      0.00000000	      0.00000000	      0.00000000	      0.00000000	      0.00000000	      0.00000000	      0.00000000	      0.00000000	      0.00000000
     22.51100000	    -29.33385679	   2017.89003155	    -19.18498985	      2.05990926	      0.00000000	      1.01405206	     -0.00000000	      3.67837571	     -0.00000000	      0.00000000	      0.00000000	      0.00000000	      0.00000000	      0.00000000	      0.00000000	      0.00000000	      0.00000000	      0.00000000
     22.51200000	    -20.07489098	   2007.67358706	    -20.28845029	      2.05583810	      0.00000000	      1.01421217	     -0.00000000	      3.38647129	     -0.00000000	      0.00000000	      0.00000000	      0.00000000	      0.00000000	      0.00000000	      0.00000000	      0.00000000	      0.00000000	      0.00000000
     22.51300000	    -10.81592517	   1997.45714257	    -21.39191072	      2.05176694	      0.00000000	      1.01437228	     -0.00000000	      3.09456686	     -0.00000000	      0.00000000	      0.00000000	      0.00000000	      0.00000000	      0.00000000	      0.00000000	      0.00000000	      0.00000000	      0.00000000
     22.51400000	     -1.53710045	   1986.31805557	    -22.32908706	      2.04766750	      0.00000000	      1.01452253	     -0.00000000	      2.80728302	     -0.00000000	      0.00000000	      0.00000000	      0.00000000	      0.00000000	      0.00000000	      0.00000000	      0.00000000	      0.00000000	      0.00000000
     22.51500000	      7.75165371	   1974.71764730	    -23.18312135	      2.04355392	      0.00000000	      1.01466785	     -0.00000000	      2.52230947	     -0.00000000	      0.00000000	      0.00000000	      0.00000000	      0.00000000	      0.00000000	      0.00000000	      0.00000000	      0.00000000	      0.00000000
     22.51600000	     17.04040788	   1963.11723904	    -24.03715564	      2.03944033	      0.00000000	      1.01481317	     -0.00000000	      2.23733592	     -0.00000000	      0.00000000	      0.00000000	      0.00000000	      0.00000000	      0.00000000	      0.00000000	      0.00000000	      0.00000000	      0.00000000
     22.51700000	     26.30579046	   1951.06032938	    -24.79463416	      2.03531336	      0.00000000	      1.01495149	     -0.00000000	      1.95656563	     -0.00000000	      0.00000000	      0.00000000	      0.00000000	      0.00000000	      0.00000000	      0.00000000	      0.00000000	      0.00000000	      0.00000000
     22.51800000	     35.52442988	   1938.09041693	    -25.35900117	      2.03115962	      0.00000000	      1.01507581	     -0.00000000	      1.68420185	     -0.00000000	      0.00000000	      0.00000000	      0.00000000	      0.00000000	      0.00000000	      0.00000000	      0.00000000	      0.00000000	      0.00000000
     22.51900000	     44.74306931	   1925.12050447	    -25.92336818	      2.02700587	      0.00000000	      1.01520013	     -0.00000000	      1.41183807	     -0.00000000	      0.00000000	      0.00000000	      0.00000000	      0.00000000	      0.00000000	      0.00000000	      0.00000000	      0.00000000	      0.00000000
     22.52000000	     53.96170873	   1912.15059201	    -26.48773518	      2.02285212	      0.00000000	      1.01532445	     -0.00000000	      1.13947429	     -0.00000000	      0.00000000	      0.00000000	      0.00000000	      0.00000000	      0.00000000	      0.00000000	      0.00000000	      0.00000000	      0.00000000
     22.52100000	     63.00772270	   1897.82058349	    -26.73575804	      2.01866283	      0.00000000	      1.01542266	     -0.00000000	      0.88434425	     -0.00000000	      0.00000000	      0.00000000	      0.00000000	      0.00000000	      0.00000000	      0.00000000	      0.00000000	      0.00000000	      0.00000000
     22.52200000	     72.05373668	   1883.49057497	    -26.98378090	      2.01447354	      0.00000000	      1.01552087	     -0.00000000	      0.62921420	     -0.00000000	      0.00000000	      0.00000000	      0.00000000	      0.00000000	      0.00000000	      0.00000000	      0.00000000	      0.00000000	      0.00000000
     22.52300000	     81.09975066	   1869.16056645	    -27.23180375	      2.01028425	      0.00000000	      1.01561908	     -0.00000000	      0.37408416	     -0.00000000	      0.00000000	      0.00000000	      0.00000000	      0.00000000	      0.00000000	      0.00000000	      0.00000000	      0.00000000	      0.00000000
     22.52400000	     89.96096044	   1853.92977360	    -27.26065011	      2.00607613	      0.00000000	      1.01569726	     -0.00000000	      0.13282357	     -0.00000000	      0.00000000	      0.00000000	      0.00000000	      0.00000000	      0.00000000	      0.00000000	      0.00000000	      0.00000000	      0.00000000
     22.52500000	     98.72976814	   1838.24858857	    -27.17990821	      2.00185858	      0.00000000	      1.01576541	     -0.00000000	     -0.10150230	     -0.00000000	      0.00000000	      0.00000000	      0.00000000	      0.00000000	      0.00000000	      0.00000000	      0.00000000	      0.00000000	      0.00000000
     22.52600000	    107.49857583	   1822.56740355	    -27.09916632	      1.99764104	      0.00000000	      1.01583357	     -0.00000000	     -0.33582817	     -0.00000000	      0.00000000	      0.00000000	      0.00000000	      0.00000000	      0.00000000	      0.00000000	      0.00000000	      0.00000000	      0.00000000
     22.52700000	    116.13971977	   1806.44016893	    -26.90943690	      1.99341746	      0.00000000	      1.01589080	     -0.00000000	     -0.56236351	     -0.00000000	      0.00000000	      0.00000000	      0.00000000	      0.00000000	      0.00000000	      0.00000000	      0.00000000	      0.00000000	      0.00000000
     22.52800000	    124.52553622	   1789.42083511	    -26.50173243	      1.98918181	      0.00000000	      1.01592617	     -0.00000000	     -0.77331780	     -0.00000000	      0.00000000	      0.00000000	      0.00000000	      0.00000000	      0.00000000	      0.00000000	      0.00000000	      0.00000000	      0.00000000
     22.52900000	    132.91135266	   1772.40150129	    -26.09402797	      1.98494616	      0.00000000	      1.01596154	     -0.00000000	     -0.98427208	     -0.00000000	      0.00000000	      0.00000000	      0.00000000	      0.00000000	      0.00000000	      0.00000000	      0.00000000	      0.00000000	      0.00000000
     22.53000000	    141.29716910	   1755.38216747	    -25.68632350	      1.98071051	      0.00000000	      1.01599690	     -0.00000000	     -1.19522636	     -0.00000000	      0.00000000	      0.00000000	      0.00000000	      0.00000000	      0.00000000	      0.00000000	      0.00000000	      0.00000000	      0.00000000
     22.53100000	    149.19424400	   1737.04627161	    -24.96698602	      1.97646986	      0.00000000	      1.01599793	     -0.00000000	     -1.38115894	     -0.00000000	      0.00000000	      0.00000000	      0.00000000	      0.00000000	      0.00000000	      0.00000000	      0.00000000	      0.00000000	      0.00000000
     22.53200000	    157.09131889	   1718.71037575	    -24.24764854	      1.97222922	      0.00000000	      1.01599897	     -0.00000000	     -1.56709152	     -0.00000000	      0.00000000	      0.00000000	      0.00000000	      0.00000000	      0.00000000	      0.00000000	      0.00000000	      0.00000000	      0.00000000
     22.53300000	    164.98839378	   1700.37447990	    -23.52831106	      1.96798857	      0.00000000	      1.01600000	     -0.00000000	     -1.75302410	     -0.00000000	      0.00000000	      0.00000000	      0.00000000	      0.00000000	      0.00000000	      0.00000000	      0.00000000	      0.00000000	      0.00000000
     22.53400000	    172.49024614	   1681.18372113	    -22.61960785	      1.96375529	      0.00000000	      1.01597788	     -0.00000000	     -1.92171523	     -0.00000000	      0.00000000	      0.00000000	      0.00000000	      0.00000000	      0.00000000	      0.00000000	      0.00000000	      0.00000000	      0.00000000
